# xmcd
#
# Track frame offsets: 
#        182
#        16782
#        28750
#        40237
#        51822
#        66085
#        82197
#        96662
#        110310
#        125037
#
# Disc length: 1927 seconds
#
# Revision: 3
# Processed by: cddbd v1.5.2PL0 Copyright (c) Steve Scherf et al.
# Submitted via: ExactAudioCopy v1.1
#
DISCID=8707850a
DTITLE=Glen Campbell - Old Home Town
DYEAR=1982
DGENRE=Country
TTITLE0=Old Home Town
TTITLE1=I Love How You Love Me.
TTITLE2=Hang On Baby (Ease My Mind)
TTITLE3=Blues (My Naughty Sweetie Gives To Me)
TTITLE4=A Few Good Men
TTITLE5=On The Wings Of My Victory
TTITLE6=I Was Too Busy Loving You
TTITLE7=Ruth
TTITLE8=A Woman's Touch
TTITLE9=Mull Of Kintyre
EXTD=Submitted by WinSkol\n\nCountry\n
EXTT0=
EXTT1=
EXTT2=
EXTT3=
EXTT4=
EXTT5=
EXTT6=
EXTT7=
EXTT8=
EXTT9=
PLAYORDER=
